<svg xmlns:dc="http://purl.org/dc/elements/1.1/" xmlns:cc="http://creativecommons.org/ns#" xmlns:rdf="http://www.w3.org/1999/02/22-rdf-syntax-ns#" xmlns:svg="http://www.w3.org/2000/svg" xmlns="http://www.w3.org/2000/svg" xmlns:sodipodi="http://sodipodi.sourceforge.net/DTD/sodipodi-0.dtd" xmlns:inkscape="http://www.inkscape.org/namespaces/inkscape" version="1.1" x="0px" y="0px" viewBox="0 0 100 125"><g transform="translate(0,-952.36218)"><path style="color:#000000;enable-background:accumulate;" d="m 10.000001,980.36218 0,11 c 6.0751,0 11,4.925 11,11.00002 0,6.0752 -4.9249,11 -11,11 l 0,11 53,0 0,-44.00002 -53,0 z m 57,0 0,44.00002 22.999998,0 0,-11 c -6.0751,0 -11,-4.9248 -11,-11 0,-6.07502 4.9249,-11.00002 11,-11.00002 l 0,-11 -22.999998,0 z m -25,8 3.75,9.3125 10.25,0.625 -7.9062,6.37502 2.5624,9.6875 -8.6562,-5.375 -8.6562,5.375 2.5624,-9.6875 -7.9062,-6.37502 10.25,-0.625 3.75,-9.3125 z" fill="#000000" stroke="none" marker="none" visibility="visible" display="inline" overflow="visible"/></g></svg>